<svg width="35" height="35" viewBox="0 0 35 35" fill="none" xmlns="http://www.w3.org/2000/svg">
<g clip-path="url(#clip0_1_4525)">
<path d="M32.1774 9.03226H30.4839V0H4.51613V9.03226H2.82258C1.2663 9.03226 0 10.2986 0 11.8548V28.7903C0 30.3466 1.2663 31.6129 2.82258 31.6129H10.1613V33.871H7.90323V35H27.0968V33.871H24.8387V31.6129H32.1774C33.7337 31.6129 35 30.3466 35 28.7903V11.8548C35 10.2986 33.7337 9.03226 32.1774 9.03226ZM20.636 9.61249C20.7013 9.55956 20.7691 9.5094 20.8322 9.45234L29.3548 1.82724V16.3506L20.636 9.61249ZM20.0786 8.61108C19.3691 9.24671 18.4529 9.59678 17.5 9.59678C16.5471 9.59678 15.6309 9.24671 14.9214 8.61108L6.55809 1.12903H28.4414L20.0786 8.61108ZM14.1683 9.45289C14.2314 9.5094 14.2987 9.56011 14.3646 9.61304L5.64516 16.35V1.82724L14.1683 9.45289ZM15.3831 10.2523C16.0407 10.5599 16.761 10.7258 17.5 10.7258C18.239 10.7258 18.9593 10.5599 19.6169 10.2523L28.2652 16.9355H6.73478L15.3831 10.2523ZM2.82258 10.1613H4.51613V18.0645H30.4839V10.1613H32.1774C33.111 10.1613 33.871 10.9212 33.871 11.8548V27.0968H1.12903V11.8548C1.12903 10.9212 1.88898 10.1613 2.82258 10.1613ZM23.7097 33.871H11.2903V31.6129H23.7097V33.871ZM32.1774 30.4839H2.82258C1.88898 30.4839 1.12903 29.7239 1.12903 28.7903V28.2258H33.871V28.7903C33.871 29.7239 33.111 30.4839 32.1774 30.4839ZM18.0645 25.9677H16.9355V19.1936H18.0645V25.9677ZM21.4516 24.8387H20.3226V19.1936H21.4516V24.8387ZM24.8387 23.7097H23.7097V19.1936H24.8387V23.7097ZM14.6774 24.8387H13.5484V19.1936H14.6774V24.8387ZM11.2903 23.7097H10.1613V19.1936H11.2903V23.7097Z" fill="#19407E"/>
</g>
<defs>
<clipPath id="clip0_1_4525">
<rect width="35" height="35" fill="white"/>
</clipPath>
</defs>
</svg>
