<svg width="35" height="35" viewBox="0 0 35 35" fill="none" xmlns="http://www.w3.org/2000/svg">
<g clip-path="url(#clip0_1_4504)">
<path d="M31.7188 14.7656C33.2265 14.7656 34.4531 13.539 34.4531 12.0312V3.28125C34.4531 1.77352 33.2265 0.546875 31.7188 0.546875H20.7812C19.2735 0.546875 18.0469 1.77352 18.0469 3.28125V12.0312C18.0469 13.539 19.2735 14.7656 20.7812 14.7656H24.6094V23.5462C24.6094 23.7951 24.552 24.0439 24.4426 24.267L23.9837 21.9745C23.6556 20.3328 22.202 19.1406 20.527 19.1406C19.7624 19.1406 19.1406 19.763 19.1406 20.527C19.1406 20.8015 19.221 21.0673 19.3736 21.2959L19.9363 22.1402C20.1447 22.4525 20.2792 22.8145 20.3257 23.187L20.7129 26.2883C20.772 26.7597 20.9535 27.2098 21.2384 27.5893L22.4219 29.1665V30.0781H21.3281V34.4531H34.4531V30.0781H33.3594V29.1134L34.1644 27.5034C34.353 27.1261 34.4531 26.7028 34.4531 26.2806V19.6875C34.4531 18.783 33.717 18.0469 32.8125 18.0469C32.5965 18.0469 32.3914 18.0912 32.2022 18.1672C32.0135 17.4699 31.3813 16.9531 30.625 16.9531C30.409 16.9531 30.2039 16.9974 30.0147 17.0734C29.826 16.3762 29.1938 15.8594 28.4375 15.8594C28.245 15.8594 28.0623 15.8988 27.8906 15.96V14.7656H31.7188ZM20.7812 13.6719C19.8767 13.6719 19.1406 12.9358 19.1406 12.0312V3.28125C19.1406 2.37672 19.8767 1.64062 20.7812 1.64062H31.7188C32.6233 1.64062 33.3594 2.37672 33.3594 3.28125V12.0312C33.3594 12.9358 32.6233 13.6719 31.7188 13.6719H27.8906V12.5316C28.0219 12.5557 28.1542 12.5781 28.2877 12.5781C28.8745 12.5781 29.4487 12.3402 29.8638 11.9252L30.625 11.1639C30.9777 10.8112 31.1719 10.3425 31.1719 9.84375C31.1719 9.345 30.9777 8.87578 30.625 8.52359L29.6609 7.55945C29.371 7.26906 28.9849 7.10938 28.5742 7.10938H28.502C27.9169 7.10938 27.3902 7.43477 27.1283 7.95867C27.0528 8.10961 26.9008 8.20312 26.7323 8.20312H26.6602C26.542 8.20312 26.431 8.15719 26.3473 8.07352L25.8333 7.55945C25.7491 7.47578 25.7031 7.36477 25.7031 7.24609V7.17391C25.7031 7.00492 25.7966 6.85344 25.9476 6.77797C26.4715 6.51602 26.7969 5.98938 26.7969 5.40422V5.33203C26.7969 4.92188 26.6372 4.53578 26.3468 4.24594L25.3827 3.28125C24.6777 2.57578 23.4473 2.57578 22.7423 3.28125L21.9811 4.0425C21.566 4.45758 21.3281 5.0318 21.3281 5.67055C21.3281 5.97406 21.3888 6.26937 21.5086 6.54828C22.2677 8.31906 23.4642 9.84047 24.9927 10.99C24.757 11.2744 24.6094 11.6342 24.6094 12.0312V13.6719H20.7812ZM26.0684 10.4092C24.4934 9.34609 23.2641 7.86898 22.5137 6.11734C22.453 5.9757 22.4219 5.82477 22.4219 5.61859C22.4219 5.32 22.5433 5.02688 22.7544 4.81578L23.5156 4.05453C23.8033 3.76688 24.3217 3.76688 24.6094 4.05453L25.5735 5.01867C25.6572 5.10234 25.7031 5.21336 25.7031 5.33203V5.40422C25.7031 5.5732 25.6096 5.72469 25.4587 5.80016C24.9348 6.06211 24.6094 6.58875 24.6094 7.17391V7.24609C24.6094 7.65625 24.7691 8.04234 25.0595 8.33219L25.5735 8.84625C25.8634 9.13719 26.2495 9.29688 26.6602 9.29688H26.7323C27.3175 9.29688 27.8441 8.97148 28.1061 8.44758C28.1816 8.29664 28.3336 8.20312 28.502 8.20312H28.5742C28.6923 8.20312 28.8034 8.24906 28.887 8.33273L29.8517 9.29688C29.9955 9.4407 30.0781 9.64031 30.0781 9.84375C30.0781 10.0472 29.9955 10.2468 29.8517 10.3906L29.0905 11.1519C28.7552 11.4871 28.204 11.5768 27.7802 11.3646L27.7331 11.3411C27.4717 10.7816 26.9073 10.3906 26.25 10.3906C26.1877 10.3906 26.1286 10.4021 26.0684 10.4092ZM33.3594 33.3594H22.4219V31.1719H33.3594V33.3594ZM28.4375 16.9531C28.7388 16.9531 28.9844 17.1987 28.9844 17.5V18.5938V21.875H30.0781V18.5938C30.0781 18.2919 30.3237 18.0469 30.625 18.0469C30.9263 18.0469 31.1719 18.2919 31.1719 18.5938V19.6875V21.875H32.2656V19.6875C32.2656 19.3856 32.5112 19.1406 32.8125 19.1406C33.1138 19.1406 33.3594 19.3856 33.3594 19.6875V26.2806C33.3594 26.5338 33.2998 26.7881 33.186 27.0145L32.2656 28.8553V30.0781H23.5156V28.8023L22.114 26.9336C21.9434 26.7055 21.834 26.4354 21.7984 26.1527L21.4113 23.0513C21.3434 22.511 21.1482 21.986 20.8463 21.5338L20.2836 20.6894C20.2513 20.6413 20.2344 20.5855 20.2344 20.527C20.2344 20.3656 20.3656 20.2344 20.527 20.2344C21.682 20.2344 22.6849 21.0563 22.9113 22.1889L23.6141 25.7031H24.9473L25.4144 24.7691C25.603 24.3917 25.7031 23.9684 25.7031 23.5462V12.0312C25.7031 11.7299 25.9487 11.4844 26.25 11.4844C26.5513 11.4844 26.7969 11.7299 26.7969 12.0312V17.5V21.875H27.8906V17.5C27.8906 17.1987 28.1362 16.9531 28.4375 16.9531Z" fill="#19407E"/>
<path d="M14.2188 18.0469H3.28125C1.77352 18.0469 0.546875 19.2735 0.546875 20.7812V29.5312C0.546875 31.039 1.77352 32.2656 3.28125 32.2656H14.2188C15.7265 32.2656 16.9531 31.039 16.9531 29.5312V20.7812C16.9531 19.2735 15.7265 18.0469 14.2188 18.0469ZM15.8594 29.5312C15.8594 30.4358 15.1233 31.1719 14.2188 31.1719H3.28125C2.37672 31.1719 1.64062 30.4358 1.64062 29.5312V20.7812C1.64062 19.8767 2.37672 19.1406 3.28125 19.1406H14.2188C15.1233 19.1406 15.8594 19.8767 15.8594 20.7812V29.5312Z" fill="#19407E"/>
<path d="M14.2188 0.546875H3.28125C1.77352 0.546875 0.546875 1.77352 0.546875 3.28125V12.0312C0.546875 13.539 1.77352 14.7656 3.28125 14.7656H14.2188C15.7265 14.7656 16.9531 13.539 16.9531 12.0312V3.28125C16.9531 1.77352 15.7265 0.546875 14.2188 0.546875ZM15.8594 12.0312C15.8594 12.9358 15.1233 13.6719 14.2188 13.6719H3.28125C2.37672 13.6719 1.64062 12.9358 1.64062 12.0312V3.28125C1.64062 2.37672 2.37672 1.64062 3.28125 1.64062H14.2188C15.1233 1.64062 15.8594 2.37672 15.8594 3.28125V12.0312Z" fill="#19407E"/>
<path d="M8.75 2.73438C6.33773 2.73438 4.375 4.69711 4.375 7.10938V8.20312C4.375 10.6154 6.33773 12.5781 8.75 12.5781V11.4844C6.94039 11.4844 5.46875 10.0127 5.46875 8.20312V7.10938C5.46875 5.29977 6.94039 3.82812 8.75 3.82812C10.5596 3.82812 12.0312 5.29977 12.0312 7.10938V9.84375C12.0312 10.1451 11.7857 10.3906 11.4844 10.3906C11.183 10.3906 10.9375 10.1451 10.9375 9.84375V8.20312V7.65625V7.10938C10.9375 5.90297 9.95641 4.92188 8.75 4.92188C7.54359 4.92188 6.5625 5.90297 6.5625 7.10938V8.20312C6.5625 9.40953 7.54359 10.3906 8.75 10.3906C9.15961 10.3906 9.53859 10.2703 9.86672 10.0734C9.97992 10.8691 10.6586 11.4844 11.4844 11.4844C12.3889 11.4844 13.125 10.7483 13.125 9.84375V7.10938C13.125 4.69711 11.1623 2.73438 8.75 2.73438ZM8.75 9.29688C8.1468 9.29688 7.65625 8.80633 7.65625 8.20312V7.10938C7.65625 6.50617 8.1468 6.01562 8.75 6.01562C9.3532 6.01562 9.84375 6.50617 9.84375 7.10938V7.65625V8.20312C9.84375 8.80633 9.3532 9.29688 8.75 9.29688Z" fill="#19407E"/>
<path d="M2.73438 28.9844H14.7656V21.3281H2.73438V28.9844ZM6.92672 26.2216C7.45773 26.594 8.08773 26.7969 8.75 26.7969C9.41227 26.7969 10.0423 26.594 10.5733 26.2216L12.6596 27.8906H4.84039L6.92672 26.2216ZM11.3914 25.4756L13.6719 23.1952V27.2995L11.3914 25.4756ZM10.2304 25.0901C9.43961 25.8803 8.06039 25.8803 7.26961 25.0901L4.60141 22.4219H12.8986L10.2304 25.0901ZM6.10805 25.4751L3.82812 27.2995V23.1952L6.10805 25.4751Z" fill="#19407E"/>
</g>
<defs>
<clipPath id="clip0_1_4504">
<rect width="35" height="35" fill="white"/>
</clipPath>
</defs>
</svg>
