<svg width="35" height="35" viewBox="0 0 35 35" fill="none" xmlns="http://www.w3.org/2000/svg">
<g clip-path="url(#clip0_1_4547)">
<path d="M28.9844 12.5781V13.6719H30.0781V12.5781C31.2845 12.5781 32.2656 11.597 32.2656 10.3906C32.2656 9.18422 31.2845 8.20312 30.0781 8.20312H28.9844C28.3812 8.20312 27.8906 7.71258 27.8906 7.10938C27.8906 6.50617 28.3812 6.01562 28.9844 6.01562H30.0781C30.6813 6.01562 31.1719 6.50617 31.1719 7.10938H32.2656C32.2656 5.90297 31.2845 4.92188 30.0781 4.92188V3.82812H28.9844V4.92188C27.778 4.92188 26.7969 5.90297 26.7969 7.10938C26.7969 8.31578 27.778 9.29688 28.9844 9.29688H30.0781C30.6813 9.29688 31.1719 9.78742 31.1719 10.3906C31.1719 10.9938 30.6813 11.4844 30.0781 11.4844H28.9844C28.3812 11.4844 27.8906 10.9938 27.8906 10.3906V9.84375H26.7969V10.3906C26.7969 11.597 27.778 12.5781 28.9844 12.5781Z" fill="#19407E"/>
<path d="M34.4531 0.546875H8.00898L1.30977 5.99922L1.31523 6.00578C0.84875 6.40719 0.546875 6.99398 0.546875 7.65625V9.29688V16.9531H7.65625L4.92188 20.5991V34.4531H30.0781V20.5991L27.3438 16.9531H34.4531V0.546875ZM6.71727 3.00836L4.84258 7.07055C4.65609 6.40062 4.1557 5.86305 3.51258 5.61641L6.71727 3.00836ZM21.6956 28.3642L28.9844 21.9866V32.9197L21.6956 28.3642ZM20.6248 28.9844L27.6248 33.3594H7.37516L14.3752 28.9844H20.6248ZM6.01562 32.9197V21.9866L13.3044 28.3642L6.01562 32.9197ZM28.7891 20.7036L20.5756 27.8906H14.4244L6.21086 20.7036L9.02344 16.9531H25.9766L28.7891 20.7036ZM33.3594 15.8594H1.64062V9.29688V7.65625C1.64062 7.05305 2.13117 6.5625 2.73438 6.5625C3.33758 6.5625 3.82812 7.05305 3.82812 7.65625V8.75H5.27188L8.55313 1.64062H33.3594V15.8594Z" fill="#19407E"/>
<path d="M8.20312 6.01562H16.9531V2.73438H8.20312V6.01562ZM9.29688 3.82812H15.8594V4.92188H9.29688V3.82812Z" fill="#19407E"/>
<path d="M18.0469 2.73438H25.7031V3.82812H18.0469V2.73438Z" fill="#19407E"/>
<path d="M24.6094 4.92188H25.7031V6.01562H24.6094V4.92188Z" fill="#19407E"/>
<path d="M18.0469 4.92188H23.5156V6.01562H18.0469V4.92188Z" fill="#19407E"/>
<path d="M18.0469 7.10938H20.7812V8.20312H18.0469V7.10938Z" fill="#19407E"/>
<path d="M21.875 7.10938H25.7031V8.20312H21.875V7.10938Z" fill="#19407E"/>
<path d="M18.0469 9.29688H25.7031V10.3906H18.0469V9.29688Z" fill="#19407E"/>
<path d="M18.0469 13.6719H25.7031V14.7656H18.0469V13.6719Z" fill="#19407E"/>
<path d="M18.0469 11.4844H21.3281V12.5781H18.0469V11.4844Z" fill="#19407E"/>
<path d="M22.4219 11.4844H25.7031V12.5781H22.4219V11.4844Z" fill="#19407E"/>
<path d="M16.0191 12.827C15.7598 12.3364 15.2595 12.0312 14.7131 12.0312C14.2204 12.0312 13.7632 12.2757 13.4898 12.6859L12.9445 13.504C12.8745 13.609 12.757 13.6719 12.6306 13.6719H12.5256C12.3993 13.6719 12.2823 13.609 12.2123 13.504L11.6665 12.6859C11.393 12.2757 10.9359 12.0312 10.4431 12.0312H10.3048C9.85742 12.0312 9.4418 12.2292 9.16398 12.5743C8.61984 13.2513 8.04234 13.6719 7.65625 13.6719C7.45992 13.6719 7.18648 13.574 6.86766 13.3963C6.87914 13.3891 6.89008 13.3826 6.90102 13.3755C7.37406 13.0807 7.65625 12.5688 7.65625 12.0072C7.65625 11.1158 6.93109 10.3906 5.99156 10.3906C5.10016 10.3906 4.375 11.1158 4.375 12.0072V12.1105C4.375 12.5229 4.53359 12.9188 4.81414 13.218C4.17758 13.4739 3.45242 13.6719 2.73438 13.6719V14.7656C3.8325 14.7656 4.91586 14.3954 5.76789 13.994C6.37547 14.4189 7.05469 14.7656 7.65625 14.7656C8.60617 14.7656 9.46422 13.947 10.016 13.2601C10.0849 13.1742 10.1905 13.125 10.3048 13.125H10.4431C10.5695 13.125 10.6865 13.1879 10.7565 13.2929L11.3023 14.111C11.5757 14.5212 12.0329 14.7656 12.5256 14.7656H12.6306C13.1234 14.7656 13.5805 14.5212 13.854 14.111L14.3992 13.2929C14.5469 13.0725 14.9204 13.0889 15.0516 13.3377C15.5449 14.2718 16.2023 14.7656 16.9531 14.7656V13.6719C16.5129 13.6719 16.153 13.0807 16.0191 12.827ZM6.32297 12.4474C6.19664 12.5267 6.04898 12.6148 5.88383 12.7061C5.80617 12.6421 5.72797 12.5759 5.64867 12.5065C5.53438 12.4053 5.46875 12.2615 5.46875 12.1111V12.0077C5.46875 11.719 5.70336 11.4844 6.03969 11.4844C6.32789 11.4844 6.5625 11.719 6.5625 12.0072C6.5625 12.1893 6.47281 12.3539 6.32297 12.4474Z" fill="#19407E"/>
<path d="M8.20312 7.10938H16.9531V8.20312H8.20312V7.10938Z" fill="#19407E"/>
<path d="M8.20312 9.29688H16.9531V10.3906H8.20312V9.29688Z" fill="#19407E"/>
</g>
<defs>
<clipPath id="clip0_1_4547">
<rect width="35" height="35" fill="white"/>
</clipPath>
</defs>
</svg>
