<svg width="35" height="35" viewBox="0 0 35 35" fill="none" xmlns="http://www.w3.org/2000/svg">
<g clip-path="url(#clip0_1_4512)">
<path d="M29.5312 29.5312C31.039 29.5312 32.2656 28.3046 32.2656 26.7969C32.2656 25.2891 31.039 24.0625 29.5312 24.0625C28.0235 24.0625 26.7969 25.2891 26.7969 26.7969C26.7969 28.3046 28.0235 29.5312 29.5312 29.5312ZM29.5312 25.1562C30.4358 25.1562 31.1719 25.8923 31.1719 26.7969C31.1719 27.7014 30.4358 28.4375 29.5312 28.4375C28.6267 28.4375 27.8906 27.7014 27.8906 26.7969C27.8906 25.8923 28.6267 25.1562 29.5312 25.1562Z" fill="#19407E"/>
<path d="M34.4531 15.1528V11.0972L33.0788 10.6138C32.7895 9.31328 32.2848 8.09156 31.5749 6.97484L32.2027 5.66453L29.3344 2.79672L28.0246 3.42453C26.9079 2.71469 25.6862 2.20992 24.3857 1.92063L23.9028 0.546875H19.8466L19.3632 1.92117C18.0627 2.21047 16.8416 2.71523 15.7243 3.42508L14.4145 2.79727L11.5462 5.66508L12.174 6.97539C11.4641 8.09211 10.9594 9.31383 10.6701 10.6143L9.29688 11.0972V14.1214L8.20312 13.6166L0.546875 17.15V22.7948C0.546875 27.7643 3.46227 32.3203 7.97398 34.4028L8.20312 34.5089L8.43227 34.4034C10.8888 33.2697 12.9385 31.3502 14.2499 28.9849H20.5855C21.5272 31.9036 24.2473 33.9068 27.3432 33.9068C31.0352 33.9068 34.0769 31.1369 34.4187 27.4679C34.4416 27.2464 34.4531 27.0233 34.4531 26.7969C34.4531 26.5705 34.4416 26.3473 34.4198 26.1308C34.2278 24.0702 33.186 22.2939 31.6564 21.1313L32.2033 20.5844L31.5755 19.2746C32.2853 18.1579 32.7901 16.9362 33.0794 15.6357L34.4531 15.1528ZM8.20312 33.3009C4.20766 31.3502 1.64062 27.2546 1.64062 22.7954V17.85L8.20312 14.8214L14.7656 17.85V22.7954C14.7656 23.4035 14.7049 24.01 14.6109 24.6094H10.3906V23.9192C11.41 23.2072 12.0312 22.0325 12.0312 20.7812C12.0312 18.6709 10.3141 16.9531 8.20312 16.9531C6.09219 16.9531 4.375 18.6709 4.375 20.7812C4.375 22.0325 4.99625 23.2077 6.01562 23.9192V31.1719H10.3906V28.9844H12.9916C11.8344 30.8334 10.1659 32.3422 8.20312 33.3009ZM13.6719 13.125C13.6719 8.6018 17.3518 4.92188 21.875 4.92188C26.3982 4.92188 30.0781 8.6018 30.0781 13.125C30.0781 15.7199 28.834 18.1683 26.7515 19.7127C25.3105 19.8324 23.9772 20.3897 22.8949 21.2614C22.558 21.3035 22.2168 21.3281 21.875 21.3281C19.588 21.3281 17.4103 20.3651 15.8594 18.69V17.15L14.3927 16.473C13.9196 15.418 13.6719 14.2942 13.6719 13.125ZM15.8545 22.8998C16.9367 23.5676 18.1125 24.0505 19.3638 24.3294L19.4622 24.6094H15.715C15.7965 24.0428 15.8495 23.4724 15.8545 22.8998ZM20.6041 24.5591L20.189 23.3795L19.8816 23.3198C18.5057 23.0524 17.2244 22.5225 16.0721 21.7454L15.8594 21.6016V20.1977C17.5 21.5923 19.5803 22.3874 21.7563 22.4153C21.2609 23.048 20.866 23.7683 20.6041 24.5591ZM7.10938 28.9844H9.29688V30.0781H7.10938V28.9844ZM6.83648 23.1465C5.99266 22.6581 5.46875 21.7514 5.46875 20.7812C5.46875 19.2735 6.69539 18.0469 8.20312 18.0469C9.71086 18.0469 10.9375 19.2735 10.9375 20.7812C10.9375 21.7514 10.4136 22.6581 9.56977 23.1465L9.29688 23.3045V24.6094H7.10938V23.3045L6.83648 23.1465ZM33.3309 26.2369C33.3501 26.4206 33.3594 26.6077 33.3594 26.7969C33.3594 26.9861 33.3501 27.1731 33.3309 27.3612C33.0411 30.4691 30.4675 32.8125 27.3438 32.8125C24.6034 32.8125 22.2108 30.957 21.5261 28.3008L21.42 27.8906H7.10938V25.7031H21.42L21.5255 25.293C22.2108 22.6368 24.6034 20.7812 27.3438 20.7812C30.4675 20.7812 33.0411 23.1246 33.3309 26.2369ZM32.0698 15.1189C31.8024 16.4948 31.2725 17.7756 30.4954 18.9279L30.3204 19.1882L30.882 20.3602L30.7103 20.5319C29.995 20.1496 29.207 19.8887 28.3719 19.769C30.1432 18.0321 31.1719 15.6384 31.1719 13.125C31.1719 7.99859 27.0014 3.82812 21.875 3.82812C16.7486 3.82812 12.5781 7.99859 12.5781 13.125C12.5781 14.0536 12.7241 14.9548 12.9888 15.8255L10.3906 14.6262V11.8716L11.6205 11.439L11.6802 11.1316C11.9476 9.7557 12.4775 8.47492 13.2546 7.32266L13.4296 7.06234L12.868 5.88984L14.6404 4.11797L15.8129 4.67961L16.0727 4.50461C17.2249 3.7275 18.5063 3.19758 19.8822 2.93016L20.1895 2.87055L20.6216 1.64062H23.1279L23.5605 2.87055L23.8678 2.93016C25.2437 3.19758 26.5251 3.7275 27.6773 4.50461L27.9371 4.67961L29.1096 4.11797L30.882 5.88984L30.3204 7.06234L30.4954 7.32266C31.2725 8.47438 31.8024 9.7557 32.0698 11.1316L32.1295 11.439L33.3594 11.8716V14.3784L32.1295 14.811L32.0698 15.1189Z" fill="#19407E"/>
<path d="M19.1406 8.20312H20.2344V12.5781H19.1406V8.20312Z" fill="#19407E"/>
<path d="M23.5156 13.6719H24.6094V18.0469H23.5156V13.6719Z" fill="#19407E"/>
<path d="M25.7031 13.6719H26.7969V18.0469H25.7031V13.6719Z" fill="#19407E"/>
<path d="M16.9531 13.6719H18.0469V18.0469H16.9531V13.6719Z" fill="#19407E"/>
<path d="M16.9531 8.20312H18.0469V12.5781H16.9531V8.20312Z" fill="#19407E"/>
<path d="M21.3281 8.20312H22.4219V12.5781H21.3281V8.20312Z" fill="#19407E"/>
<path d="M24.6094 12.5781H25.7031C26.3063 12.5781 26.7969 12.0876 26.7969 11.4844V9.29688C26.7969 8.69367 26.3063 8.20312 25.7031 8.20312H24.6094C24.0062 8.20312 23.5156 8.69367 23.5156 9.29688V11.4844C23.5156 12.0876 24.0062 12.5781 24.6094 12.5781ZM24.6094 9.29688H25.7031L25.7037 11.4844H24.6094V9.29688Z" fill="#19407E"/>
<path d="M20.2344 18.0469H21.3281C21.9313 18.0469 22.4219 17.5563 22.4219 16.9531V14.7656C22.4219 14.1624 21.9313 13.6719 21.3281 13.6719H20.2344C19.6312 13.6719 19.1406 14.1624 19.1406 14.7656V16.9531C19.1406 17.5563 19.6312 18.0469 20.2344 18.0469ZM20.2344 14.7656H21.3281L21.3287 16.9531H20.2344V14.7656Z" fill="#19407E"/>
<path d="M9.84375 20.7812C9.84375 19.8767 9.10766 19.1406 8.20312 19.1406C7.29859 19.1406 6.5625 19.8767 6.5625 20.7812C6.5625 21.6858 7.29859 22.4219 8.20312 22.4219C9.10766 22.4219 9.84375 21.6858 9.84375 20.7812ZM7.65625 20.7812C7.65625 20.4794 7.9018 20.2344 8.20312 20.2344C8.50445 20.2344 8.75 20.4794 8.75 20.7812C8.75 21.0831 8.50445 21.3281 8.20312 21.3281C7.9018 21.3281 7.65625 21.0831 7.65625 20.7812Z" fill="#19407E"/>
</g>
<defs>
<clipPath id="clip0_1_4512">
<rect width="35" height="35" fill="white"/>
</clipPath>
</defs>
</svg>
