<svg width="35" height="35" viewBox="0 0 35 35" fill="none" xmlns="http://www.w3.org/2000/svg">
<g clip-path="url(#clip0_1_4530)">
<path d="M18.0469 11.4844H16.9531C16.3499 11.4844 15.8594 11.9749 15.8594 12.5781V16.9531C15.8594 17.5563 16.3499 18.0469 16.9531 18.0469H18.0469C18.6501 18.0469 19.1406 17.5563 19.1406 16.9531V12.5781C19.1406 11.9749 18.6501 11.4844 18.0469 11.4844ZM16.9531 16.9531V12.5781H18.0469L18.0474 16.9531H16.9531Z" fill="#19407E"/>
<path d="M17.5 19.1406C16.5955 19.1406 15.8594 19.8767 15.8594 20.7812C15.8594 21.6858 16.5955 22.4219 17.5 22.4219C18.4045 22.4219 19.1406 21.6858 19.1406 20.7812C19.1406 19.8767 18.4045 19.1406 17.5 19.1406ZM17.5 21.3281C17.1987 21.3281 16.9531 21.0831 16.9531 20.7812C16.9531 20.4794 17.1987 20.2344 17.5 20.2344C17.8013 20.2344 18.0469 20.4794 18.0469 20.7812C18.0469 21.0831 17.8013 21.3281 17.5 21.3281Z" fill="#19407E"/>
<path d="M32.8125 0.546875H2.1875C1.28297 0.546875 0.546875 1.28297 0.546875 2.1875V20.2344C0.546875 20.8376 1.03742 21.3281 1.64062 21.3281H2.73438V28.4375C2.73438 29.9452 3.96102 31.1719 5.46875 31.1719H13.125V33.3594H9.84375V34.4531H25.1562V33.3594H21.3281V31.1719H29.5312C31.039 31.1719 32.2656 29.9452 32.2656 28.4375V21.3281H33.3594C33.9626 21.3281 34.4531 20.8376 34.4531 20.2344V2.1875C34.4531 1.28297 33.717 0.546875 32.8125 0.546875ZM2.1875 1.64062H32.8125C33.1138 1.64062 33.3594 1.88563 33.3594 2.1875V4.92188H1.64062V2.1875C1.64062 1.88563 1.88617 1.64062 2.1875 1.64062ZM20.2344 33.3594H14.2188V31.1719H20.2344V33.3594ZM29.5312 30.0781H5.46875C4.56422 30.0781 3.82812 29.342 3.82812 28.4375V26.7969H31.1719V28.4375C31.1719 29.342 30.4358 30.0781 29.5312 30.0781ZM31.1719 25.7031H3.82812V21.3281H7.89797C7.74266 21.6415 7.65625 21.986 7.65625 22.3371C7.65625 23.59 8.67563 24.6094 9.92852 24.6094H25.0709C26.3244 24.6094 27.3438 23.59 27.3438 22.3371C27.3438 21.9866 27.2573 21.6415 27.102 21.3281H31.1719V25.7031ZM26.25 22.3371C26.25 22.9868 25.7212 23.5156 25.0715 23.5156H9.92852C9.27883 23.5156 8.75 22.9868 8.75 22.3371C8.75 22.1309 8.80469 21.9275 8.90805 21.7487L16.3335 8.87742C16.573 8.46125 17.0204 8.20312 17.5 8.20312C17.9796 8.20312 18.427 8.46125 18.6665 8.87687L26.092 21.7481C26.1953 21.9275 26.25 22.1309 26.25 22.3371ZM26.4819 20.2344L19.6142 8.33C19.1795 7.57695 18.3695 7.10938 17.5 7.10938C16.6305 7.10938 15.8205 7.57695 15.3858 8.33L8.51813 20.2344H1.64062V6.01562H33.3594V20.2344H26.4819Z" fill="#19407E"/>
<path d="M2.73438 2.73438H3.82812V3.82812H2.73438V2.73438Z" fill="#19407E"/>
<path d="M4.92188 2.73438H6.01562V3.82812H4.92188V2.73438Z" fill="#19407E"/>
<path d="M7.10938 2.73438H8.20312V3.82812H7.10938V2.73438Z" fill="#19407E"/>
<path d="M22.4219 10.3906H32.2656V7.10938H22.4219V10.3906ZM23.5156 8.20312H31.1719V9.29688H23.5156V8.20312Z" fill="#19407E"/>
<path d="M25.7031 13.6719H32.2656V14.7656H25.7031V13.6719Z" fill="#19407E"/>
<path d="M25.7031 11.4844H32.2656V12.5781H25.7031V11.4844Z" fill="#19407E"/>
<path d="M25.7031 15.8594H32.2656V16.9531H25.7031V15.8594Z" fill="#19407E"/>
<path d="M2.73438 12.5781H11.4844V7.10938H2.73438V12.5781ZM3.82812 8.20312H10.3906V11.4844H3.82812V8.20312Z" fill="#19407E"/>
<path d="M2.73438 13.6719H7.10938V14.7656H2.73438V13.6719Z" fill="#19407E"/>
<path d="M2.73438 15.8594H7.10938V16.9531H2.73438V15.8594Z" fill="#19407E"/>
</g>
<defs>
<clipPath id="clip0_1_4530">
<rect width="35" height="35" fill="white"/>
</clipPath>
</defs>
</svg>
