<svg width="35" height="35" viewBox="0 0 35 35" fill="none" xmlns="http://www.w3.org/2000/svg">
<g clip-path="url(#clip0_1_4566)">
<path d="M11.2904 31.6128H7.90332V32.7418H11.2904V31.6128Z" fill="#19407E"/>
<path d="M24.605 6.88089L24.8274 4.65556C24.8353 4.58105 24.8387 4.50653 24.8387 4.43202V3.95161C24.8387 2.70629 23.826 1.69355 22.5806 1.69355C21.3353 1.69355 20.3226 2.70629 20.3226 3.95161V4.43202C20.3226 4.50653 20.326 4.58161 20.3339 4.65669L20.5563 6.88145L19.1935 7.78919V2.82258C19.1935 1.26621 17.9273 0 16.371 0H2.82258C1.26621 0 0 1.26621 0 2.82258V32.1774C0 33.7338 1.26621 35 2.82258 35H16.371C17.9273 35 19.1935 33.7338 19.1935 32.1774V30.4839H35V13.8109L24.605 6.88089ZM21.4516 3.95161C21.4516 3.32895 21.958 2.82258 22.5806 2.82258C23.2033 2.82258 23.7097 3.32895 23.7097 3.95161V4.43202C23.7097 4.46984 23.708 4.50766 23.704 4.54435L22.6394 15.1889C22.6331 15.2493 22.5276 15.2493 22.5214 15.1889L21.4573 4.54492C21.4533 4.5071 21.4516 4.46927 21.4516 4.43202V3.95161ZM20.6833 8.15274L21.398 15.3006C21.4595 15.9109 21.9676 16.371 22.5806 16.371C23.1937 16.371 23.7018 15.9109 23.7633 15.3006L24.478 8.15274L33.464 14.1434L22.5806 22.4356L11.6973 14.1434L20.6833 8.15274ZM20.3305 22.1409L11.2903 28.8022V15.2527L20.3305 22.1409ZM1.12903 2.82258C1.12903 1.88887 1.88887 1.12903 2.82258 1.12903H16.371C17.3047 1.12903 18.0645 1.88887 18.0645 2.82258V3.3871H1.12903V2.82258ZM1.12903 4.51613H18.0645V8.54226L16.9355 9.29476V5.64516H2.25806V28.2258H7.90323V27.0968H3.3871V6.77419H15.8065V10.0473L10.1613 13.8109V27.0968H9.03226V28.2258H10.1613V29.3548H1.12903V4.51613ZM18.0645 32.1774C18.0645 33.1111 17.3047 33.871 16.371 33.871H2.82258C1.88887 33.871 1.12903 33.1111 1.12903 32.1774V30.4839H10.1613H10.7258H18.0645V32.1774ZM12.4436 29.3548L21.2665 22.8539L22.5806 23.8548L23.8948 22.8539L32.7177 29.3548H12.4436ZM33.871 28.8022L24.8308 22.1409L33.871 15.2527V28.8022Z" fill="#19407E"/>
<path d="M22.5803 17.5C21.6466 17.5 20.8867 18.2598 20.8867 19.1935C20.8867 20.1273 21.6466 20.8871 22.5803 20.8871C23.514 20.8871 24.2738 20.1273 24.2738 19.1935C24.2738 18.2598 23.514 17.5 22.5803 17.5ZM22.5803 19.7581C22.2692 19.7581 22.0158 19.5046 22.0158 19.1935C22.0158 18.8825 22.2692 18.629 22.5803 18.629C22.8913 18.629 23.1448 18.8825 23.1448 19.1935C23.1448 19.5046 22.8913 19.7581 22.5803 19.7581Z" fill="#19407E"/>
</g>
<defs>
<clipPath id="clip0_1_4566">
<rect width="35" height="35" fill="white"/>
</clipPath>
</defs>
</svg>
